<svg xmlns="http://www.w3.org/2000/svg" width="120" height="40" viewBox="0 0 120 40" fill="none">
  <rect width="120" height="40" rx="12" fill="#1F2334"/>
  <path d="M26 28L33 12H37L44 28H40L38.6 24.6H31.4L30 28H26ZM32.4 22.3H37.6L35 16.5L32.4 22.3Z" fill="#3E7BFF"/>
  <path d="M52.4 28C50.16 28 48.4 27.3467 47.12 26.04C45.84 24.7333 45.2 22.9667 45.2 20.74C45.2 18.5067 45.84 16.74 47.12 15.44C48.4 14.1333 50.16 13.48 52.4 13.48C54.6467 13.48 56.4133 14.1333 57.7 15.44C58.9867 16.74 59.63 18.5067 59.63 20.74C59.63 22.9667 58.9867 24.7333 57.7 26.04C56.4133 27.3467 54.6467 28 52.4 28ZM52.4 24.96C53.4333 24.96 54.2 24.6 54.7 23.88C55.2067 23.1533 55.46 22.12 55.46 20.78C55.46 19.4267 55.2067 18.3867 54.7 17.66C54.2 16.9333 53.4333 16.57 52.4 16.57C51.38 16.57 50.62 16.9333 50.12 17.66C49.62 18.3867 49.37 19.4267 49.37 20.78C49.37 22.12 49.62 23.1533 50.12 23.88C50.62 24.6 51.38 24.96 52.4 24.96Z" fill="#F0F4FF"/>
  <path d="M65.58 28V13.8H73.08C74.1 13.8 74.94 13.9467 75.6 14.24C76.26 14.5267 76.7667 14.92 77.12 15.42C77.4733 15.92 77.65 16.5067 77.65 17.18C77.65 17.9133 77.4733 18.5267 77.12 19.02C76.7667 19.5133 76.2333 19.8867 75.52 20.14V20.22C76.3533 20.38 77.0133 20.72 77.5 21.24C77.9867 21.76 78.23 22.44 78.23 23.28C78.23 24.0133 78.04 24.6533 77.66 25.2C77.28 25.7467 76.7467 26.1867 76.06 26.52C75.3733 26.8533 74.56 27.02 73.62 27.02H65.58ZM69.75 19.32H72.44C73.0067 19.32 73.4467 19.1933 73.76 18.94C74.08 18.6867 74.24 18.32 74.24 17.84C74.24 17.3333 74.0733 16.94 73.74 16.66C73.4067 16.3733 72.9067 16.23 72.24 16.23H69.75V19.32ZM69.75 24.57H72.66C73.28 24.57 73.76 24.4267 74.1 24.14C74.44 23.8533 74.61 23.4533 74.61 22.94C74.61 22.4067 74.4433 22.0067 74.11 21.74C73.7767 21.4733 73.2733 21.34 72.6 21.34H69.75V24.57Z" fill="#F0F4FF"/>
  <path d="M85.22 28C83.2933 28 81.8067 27.5333 80.76 26.6C79.7133 25.6667 79.19 24.3733 79.19 22.72C79.19 21.0533 79.7267 19.7333 80.8 18.76C81.8733 17.7867 83.4 17.3 85.38 17.3C87.1533 17.3 88.6267 17.6867 89.8 18.46C90.98 19.2267 91.7633 20.32 92.15 21.74H88.04C87.8533 21.2067 87.4667 20.8 86.88 20.52C86.2933 20.24 85.5467 20.1 84.64 20.1C83.72 20.1 83 20.3133 82.48 20.74C81.9667 21.16 81.71 21.7867 81.71 22.62C81.71 23.4467 81.9667 24.0667 82.48 24.48C82.9933 24.8933 83.7667 25.1 84.8 25.1C85.7067 25.1 86.44 24.9667 87 24.7C87.56 24.4267 87.9133 24.0333 88.06 23.52H92.17C91.81 24.9333 91.0067 26.02 89.76 26.78C88.52 27.5333 86.98 27.91 85.22 27.91V28Z" fill="#F0F4FF"/>
  <path d="M99.91 28C98.3033 28 96.9333 27.6333 95.8 26.9C94.6667 26.1667 93.86 25.12 93.38 23.76L96.54 22.88C96.8067 23.5733 97.2267 24.08 97.8 24.4C98.3733 24.72 99.08 24.88 99.92 24.88C100.707 24.88 101.3 24.74 101.7 24.46C102.107 24.1733 102.31 23.7933 102.31 23.32C102.31 22.8133 102.14 22.4333 101.8 22.18C101.467 21.9267 100.92 21.76 100.16 21.68L97.87 21.44C96.0833 21.2533 94.77 20.7733 93.93 20C93.0967 19.2267 92.68 18.0867 92.68 16.58C92.68 15.0733 93.2833 13.88 94.49 13C95.7067 12.12 97.3667 11.68 99.47 11.68C101.523 11.68 103.13 12.1 104.29 12.94C105.457 13.7733 106.2 14.9267 106.52 16.4L103.21 17.12C103.043 16.5467 102.69 16.1067 102.15 15.8C101.61 15.4867 100.873 15.33 99.94 15.33C99.12 15.33 98.52 15.46 98.14 15.72C97.76 15.98 97.57 16.3267 97.57 16.76C97.57 17.1867 97.73 17.52 98.05 17.76C98.37 17.9933 98.89 18.1467 99.61 18.22L101.96 18.46C103.813 18.6467 105.173 19.1467 106.04 19.96C106.913 20.7733 107.35 21.9267 107.35 23.42C107.35 25.0133 106.74 26.26 105.52 27.16C104.3 28.06 102.547 28.51 100.26 28.51L99.91 28Z" fill="#3E7BFF"/>
</svg>
